<svg xmlns="http://www.w3.org/2000/svg" viewBox="0 0 64 64" width="64" height="64"><path fill="#FFFFFF" fill-rule="evenodd" d="M61.81 36.49 C61.82 36.75 61.83 37.01 61.84 37.27 C61.84 37.53 61.85 37.79 61.85 38.05 C61.85 38.32 61.86 38.58 61.86 38.84 C61.85 39.10 61.85 39.36 61.84 39.63 C61.83 39.89 61.82 40.15 61.81 40.41 C61.80 40.68 61.79 40.94 61.76 41.20 C61.74 41.47 61.71 41.73 61.69 41.99 C61.66 42.25 61.63 42.52 61.60 42.78 C61.56 43.04 61.53 43.31 61.48 43.57 C61.44 43.83 61.39 44.09 61.33 44.35 C61.28 44.61 61.22 44.87 61.16 45.13 C61.10 45.39 61.05 45.65 60.98 45.91 C60.91 46.16 60.84 46.42 60.76 46.67 C60.68 46.93 60.59 47.18 60.49 47.43 C60.40 47.67 60.30 47.92 60.20 48.17 C60.09 48.41 59.99 48.66 59.87 48.90 C59.76 49.14 59.64 49.38 59.51 49.61 C59.39 49.85 59.26 50.08 59.13 50.31 C58.99 50.54 58.86 50.77 58.71 50.99 C58.57 51.22 58.42 51.44 58.27 51.65 C58.11 51.87 57.96 52.08 57.79 52.29 C57.63 52.50 57.46 52.70 57.28 52.91 C57.11 53.11 56.93 53.30 56.75 53.50 C56.57 53.69 56.39 53.89 56.21 54.07 C56.02 54.26 55.83 54.45 55.64 54.63 C55.45 54.81 55.26 54.99 55.06 55.16 C54.86 55.33 54.66 55.50 54.45 55.66 C54.25 55.83 54.04 55.98 53.83 56.14 C53.62 56.29 53.40 56.45 53.19 56.59 C52.98 56.74 52.76 56.89 52.54 57.03 C52.33 57.17 52.10 57.30 51.88 57.44 C51.66 57.57 51.44 57.70 51.21 57.83 C50.99 57.95 50.77 58.07 50.54 58.19 C50.31 58.31 50.09 58.43 49.86 58.54 C49.63 58.65 49.40 58.76 49.17 58.87 C48.94 58.97 48.71 59.07 48.48 59.17 C48.25 59.27 48.02 59.37 47.79 59.46 C47.56 59.55 47.32 59.63 47.09 59.71 C46.85 59.80 46.61 59.87 46.38 59.95 C46.15 60.03 45.91 60.11 45.68 60.18 C45.45 60.25 45.21 60.32 44.98 60.39 C44.75 60.46 44.51 60.52 44.28 60.59 C44.05 60.65 43.82 60.72 43.59 60.78 C43.36 60.84 43.13 60.90 42.89 60.95 C42.66 61.00 42.43 61.05 42.19 61.09 C41.96 61.13 41.73 61.18 41.49 61.22 C41.26 61.26 41.03 61.30 40.80 61.34 C40.57 61.38 40.34 61.42 40.11 61.46 C39.89 61.49 39.66 61.53 39.43 61.55 C39.20 61.58 38.97 61.61 38.74 61.63 C38.51 61.66 38.28 61.68 38.05 61.70 C37.83 61.72 37.60 61.75 37.37 61.77 C37.15 61.79 36.92 61.81 36.70 61.83 C36.47 61.84 36.25 61.86 36.02 61.88 C35.80 61.89 35.57 61.91 35.35 61.92 C35.12 61.93 34.90 61.93 34.68 61.94 C34.45 61.95 34.23 61.95 34.00 61.95 C33.78 61.96 33.56 61.96 33.34 61.97 C33.11 61.98 32.89 61.98 32.67 61.99 C32.45 61.99 32.22 61.99 32.00 62.00 C31.78 62.00 31.55 62.00 31.33 62.00 C31.11 62.00 30.89 61.99 30.66 61.99 C30.44 61.98 30.22 61.97 29.99 61.96 C29.77 61.95 29.55 61.94 29.33 61.93 C29.10 61.92 28.88 61.91 28.65 61.90 C28.43 61.89 28.20 61.88 27.98 61.87 C27.75 61.85 27.53 61.84 27.30 61.83 C27.08 61.81 26.85 61.79 26.63 61.77 C26.40 61.75 26.17 61.72 25.95 61.70 C25.72 61.68 25.49 61.66 25.26 61.63 C25.03 61.61 24.80 61.58 24.58 61.55 C24.35 61.51 24.12 61.47 23.89 61.43 C23.67 61.39 23.44 61.36 23.21 61.32 C22.98 61.28 22.74 61.24 22.51 61.20 C22.28 61.16 22.05 61.11 21.82 61.06 C21.59 61.02 21.35 60.97 21.12 60.92 C20.89 60.87 20.65 60.82 20.42 60.76 C20.19 60.70 19.96 60.64 19.72 60.58 C19.49 60.52 19.25 60.46 19.02 60.39 C18.79 60.32 18.55 60.26 18.32 60.18 C18.09 60.11 17.86 60.02 17.63 59.94 C17.39 59.86 17.16 59.78 16.93 59.69 C16.70 59.61 16.47 59.52 16.23 59.43 C16.00 59.34 15.77 59.24 15.53 59.15 C15.30 59.06 15.06 58.96 14.83 58.86 C14.60 58.76 14.37 58.65 14.14 58.54 C13.91 58.43 13.69 58.31 13.46 58.19 C13.23 58.07 13.01 57.95 12.79 57.83 C12.56 57.70 12.34 57.57 12.12 57.44 C11.90 57.30 11.67 57.17 11.46 57.03 C11.24 56.89 11.02 56.74 10.81 56.59 C10.60 56.44 10.39 56.29 10.18 56.13 C9.97 55.97 9.77 55.81 9.57 55.65 C9.37 55.48 9.17 55.31 8.97 55.13 C8.77 54.96 8.58 54.79 8.38 54.61 C8.19 54.43 7.99 54.25 7.80 54.07 C7.61 53.88 7.43 53.69 7.25 53.50 C7.07 53.30 6.89 53.11 6.72 52.91 C6.54 52.70 6.37 52.50 6.21 52.29 C6.04 52.08 5.89 51.87 5.73 51.65 C5.58 51.44 5.43 51.22 5.29 50.99 C5.14 50.77 5.01 50.54 4.87 50.31 C4.74 50.08 4.61 49.85 4.49 49.61 C4.36 49.38 4.24 49.14 4.13 48.90 C4.02 48.66 3.91 48.41 3.81 48.16 C3.71 47.92 3.62 47.67 3.53 47.42 C3.45 47.17 3.36 46.91 3.28 46.66 C3.19 46.41 3.12 46.15 3.05 45.90 C2.97 45.64 2.91 45.38 2.85 45.13 C2.78 44.87 2.72 44.61 2.67 44.35 C2.61 44.09 2.56 43.83 2.52 43.57 C2.47 43.31 2.44 43.04 2.40 42.78 C2.37 42.52 2.34 42.25 2.31 41.99 C2.29 41.73 2.26 41.47 2.24 41.20 C2.21 40.94 2.20 40.68 2.19 40.41 C2.18 40.15 2.17 39.89 2.17 39.63 C2.17 39.36 2.16 39.10 2.16 38.84 C2.16 38.58 2.16 38.31 2.16 38.05 C2.16 37.79 2.16 37.53 2.16 37.27 C2.17 37.01 2.18 36.75 2.19 36.49 C2.20 36.23 2.22 35.97 2.23 35.71 C2.24 35.45 2.26 35.19 2.27 34.93 C2.29 34.67 2.30 34.41 2.32 34.15 C2.34 33.89 2.36 33.63 2.38 33.38 C2.40 33.12 2.43 32.86 2.45 32.60 C2.47 32.34 2.49 32.08 2.51 31.82 C2.54 31.56 2.56 31.30 2.58 31.04 C2.61 30.77 2.63 30.51 2.66 30.25 C2.69 29.99 2.72 29.73 2.75 29.47 C2.78 29.20 2.81 28.94 2.85 28.68 C2.88 28.41 2.91 28.15 2.94 27.88 C2.98 27.61 3.01 27.35 3.05 27.08 C3.08 26.81 3.12 26.54 3.15 26.27 C3.19 26.00 3.22 25.73 3.26 25.45 C3.29 25.18 3.32 24.90 3.37 24.62 C3.41 24.35 3.45 24.07 3.50 23.80 C3.54 23.52 3.59 23.24 3.64 22.96 C3.68 22.67 3.72 22.39 3.77 22.10 C3.81 21.81 3.85 21.52 3.90 21.23 C3.95 20.94 4.00 20.64 4.05 20.35 C4.10 20.05 4.16 19.76 4.22 19.46 C4.28 19.16 4.34 18.86 4.40 18.56 C4.46 18.26 4.53 17.95 4.59 17.65 C4.66 17.34 4.73 17.03 4.79 16.72 C4.86 16.40 4.93 16.08 4.99 15.76 C5.06 15.44 5.14 15.11 5.21 14.79 C5.29 14.46 5.37 14.14 5.46 13.81 C5.54 13.48 5.62 13.15 5.71 12.81 C5.80 12.47 5.89 12.13 5.99 11.80 C6.08 11.46 6.19 11.12 6.29 10.77 C6.40 10.43 6.50 10.08 6.61 9.73 C6.73 9.38 6.84 9.02 6.97 8.68 C7.09 8.33 7.23 7.98 7.37 7.64 C7.51 7.30 7.66 6.95 7.82 6.61 C7.97 6.27 8.14 5.94 8.31 5.61 C8.49 5.29 8.68 4.97 8.89 4.67 C9.09 4.37 9.31 4.08 9.55 3.82 C9.78 3.55 10.04 3.30 10.31 3.08 C10.58 2.87 10.87 2.67 11.18 2.51 C11.49 2.36 11.82 2.23 12.17 2.15 C12.52 2.07 12.89 2.03 13.29 2.04 C13.68 2.05 14.09 2.10 14.52 2.21 C14.95 2.32 15.40 2.48 15.87 2.70 C16.33 2.93 16.82 3.20 17.31 3.53 C17.79 3.86 18.30 4.26 18.80 4.68 C19.30 5.10 19.81 5.59 20.29 6.06 C20.78 6.53 21.26 7.04 21.72 7.53 C22.17 8.01 22.61 8.50 23.03 8.95 C23.44 9.40 23.83 9.83 24.20 10.23 C24.57 10.62 24.91 10.98 25.24 11.31 C25.56 11.64 25.86 11.93 26.16 12.20 C26.45 12.47 26.72 12.71 26.98 12.94 C27.25 13.17 27.50 13.38 27.74 13.57 C27.99 13.76 28.22 13.93 28.44 14.09 C28.67 14.24 28.89 14.38 29.10 14.51 C29.31 14.64 29.52 14.75 29.72 14.85 C29.92 14.95 30.12 15.03 30.31 15.11 C30.51 15.18 30.70 15.24 30.89 15.29 C31.08 15.34 31.26 15.39 31.45 15.41 C31.63 15.44 31.82 15.45 32.00 15.45 C32.18 15.45 32.37 15.44 32.55 15.41 C32.74 15.39 32.92 15.34 33.11 15.29 C33.30 15.24 33.49 15.18 33.69 15.11 C33.88 15.03 34.08 14.95 34.28 14.85 C34.48 14.75 34.69 14.64 34.90 14.52 C35.11 14.40 35.33 14.26 35.55 14.10 C35.78 13.95 36.01 13.78 36.25 13.59 C36.50 13.40 36.75 13.20 37.01 12.97 C37.27 12.74 37.55 12.50 37.84 12.23 C38.13 11.95 38.43 11.66 38.76 11.33 C39.08 11.00 39.42 10.65 39.79 10.26 C40.15 9.87 40.54 9.45 40.95 9.00 C41.37 8.55 41.81 8.05 42.27 7.56 C42.73 7.07 43.21 6.55 43.70 6.08 C44.19 5.60 44.69 5.13 45.19 4.71 C45.69 4.29 46.19 3.90 46.68 3.57 C47.17 3.24 47.65 2.96 48.12 2.73 C48.59 2.51 49.04 2.34 49.47 2.22 C49.91 2.11 50.32 2.05 50.71 2.04 C51.11 2.03 51.48 2.07 51.83 2.15 C52.18 2.23 52.51 2.35 52.83 2.50 C53.14 2.66 53.43 2.85 53.71 3.06 C53.98 3.27 54.24 3.52 54.47 3.78 C54.71 4.05 54.92 4.34 55.13 4.65 C55.33 4.95 55.51 5.28 55.69 5.60 C55.87 5.93 56.03 6.27 56.19 6.61 C56.35 6.94 56.50 7.28 56.64 7.63 C56.79 7.97 56.92 8.32 57.05 8.66 C57.17 9.01 57.29 9.36 57.40 9.71 C57.52 10.06 57.62 10.41 57.73 10.75 C57.83 11.10 57.92 11.45 58.02 11.79 C58.11 12.13 58.21 12.47 58.30 12.80 C58.39 13.14 58.48 13.47 58.56 13.80 C58.64 14.13 58.72 14.46 58.79 14.78 C58.87 15.11 58.94 15.44 59.01 15.75 C59.08 16.07 59.16 16.39 59.23 16.70 C59.30 17.01 59.37 17.32 59.43 17.63 C59.49 17.94 59.55 18.25 59.61 18.55 C59.67 18.86 59.72 19.16 59.78 19.46 C59.84 19.76 59.90 20.05 59.95 20.35 C60.00 20.64 60.05 20.94 60.10 21.23 C60.15 21.52 60.19 21.81 60.24 22.10 C60.29 22.38 60.33 22.67 60.38 22.95 C60.42 23.23 60.47 23.51 60.51 23.79 C60.55 24.07 60.60 24.35 60.64 24.62 C60.69 24.90 60.73 25.17 60.77 25.44 C60.81 25.72 60.84 25.99 60.87 26.26 C60.91 26.53 60.94 26.80 60.97 27.07 C61.00 27.34 61.04 27.61 61.07 27.88 C61.10 28.14 61.13 28.41 61.16 28.67 C61.19 28.94 61.22 29.20 61.25 29.47 C61.28 29.73 61.31 29.99 61.34 30.25 C61.37 30.51 61.39 30.77 61.42 31.04 C61.44 31.30 61.46 31.56 61.49 31.82 C61.51 32.08 61.53 32.34 61.55 32.60 C61.57 32.86 61.60 33.12 61.62 33.38 C61.64 33.63 61.66 33.89 61.68 34.15 C61.70 34.41 61.71 34.67 61.73 34.93 C61.74 35.19 61.76 35.45 61.77 35.71 C61.78 35.97 61.80 36.23 61.81 36.49 Z M14.37 41.59 a4.46 4.46 0 1 0 8.92 0 a4.46 4.46 0 1 0 -8.92 0 Z M40.65 41.59 a4.46 4.46 0 1 0 8.92 0 a4.46 4.46 0 1 0 -8.92 0 Z"/></svg>
